<?xml version="1.0" encoding="utf-8"?>
<!-- Generator: Adobe Illustrator 18.1.1, SVG Export Plug-In . SVG Version: 6.00 Build 0)  -->
<svg version="1.1" id="Layer_1" xmlns="http://www.w3.org/2000/svg" xmlns:xlink="http://www.w3.org/1999/xlink" x="0px" y="0px"
	 viewBox="0 0 500 500" enable-background="new 0 0 500 500" xml:space="preserve">
<g>
	<path fill="none" stroke="#2D2D2D" stroke-width="5" stroke-miterlimit="10" d="M452.9,331.2H47.1c-3.7,0-6.7-3-6.7-6.7V79.6
		c0-3.7,3-6.7,6.7-6.7h405.7c3.7,0,6.7,3,6.7,6.7v244.9C459.5,328.2,456.5,331.2,452.9,331.2z"/>
	<path fill="none" stroke="#2D2D2D" stroke-width="5" stroke-miterlimit="10" d="M466.8,377.4H33.2c-5.4,0-9.8-4.4-9.8-9.8V62.3
		c0-5.4,4.4-9.8,9.8-9.8h433.6c5.4,0,9.8,4.4,9.8,9.8v305.3C476.6,373,472.2,377.4,466.8,377.4z"/>
	<polyline fill="none" stroke="#2D2D2D" stroke-width="5" stroke-miterlimit="10" points="283,380.2 300.5,431.5 199.5,431.5 
		217,380.2 	"/>
	<path fill="none" stroke="#2D2D2D" stroke-width="5" stroke-miterlimit="10" d="M338.8,447.6H161.2v-8c0-4.6,3.7-8.3,8.3-8.3h160.9
		c4.6,0,8.3,3.7,8.3,8.3V447.6z"/>
</g>
</svg>
